<?xml version="1.0" encoding="utf-8"?>
<!-- Generator: Adobe Illustrator 19.1.0, SVG Export Plug-In . SVG Version: 6.00 Build 0)  -->
<svg version="1.1" id="Layer_1" xmlns="http://www.w3.org/2000/svg" xmlns:xlink="http://www.w3.org/1999/xlink" x="0px" y="0px"
	 viewBox="0 0 60 70" style="enable-background:new 0 0 60 70;" xml:space="preserve">
<style type="text/css">
	.st0{fill:#BCBEC0;}
	.st1{fill:#808285;}
	.st2{fill:#D2D4D5;}
</style>
<g>
	<path class="st0" d="M20.5,0c-0.8,0-1.4,0.6-1.4,1.3v6.6c0,0.7,0.6,1.3,1.4,1.3s1.4-0.6,1.4-1.3V2.5H30V0H20.5z"/>
	<path class="st1" d="M38.1,7.9c0,0.7,0.6,1.3,1.4,1.3s1.4-0.6,1.4-1.3V1.3c0-0.7-0.6-1.3-1.4-1.3H30v2.5h8.1V7.9z"/>
	<path class="st2" d="M3.3,12.3c-0.1,0-0.2,0-0.3,0.1C3,12.5,3,12.6,3,12.7l6.9,57c0,0.2,0.2,0.3,0.3,0.3H30V12.3H3.3z"/>
	<path class="st0" d="M50.2,69.7l6.9-57c0-0.1,0-0.2-0.1-0.2c-0.1-0.1-0.2-0.1-0.3-0.1H30V70h19.8C50,70,50.1,69.9,50.2,69.7z"/>
	<path class="st1" d="M30,65.1c-1.1,0-2.1-0.9-2.1-1.9V21.4c0-1,0.9-1.9,2.1-1.9s2.1,0.9,2.1,1.9v41.9C32.1,64.3,31.1,65.1,30,65.1z
		"/>
	<g>
		<path class="st0" d="M19.2,65.1c-1,0-1.9-0.7-2-1.7l-4.4-41.9c-0.1-1,0.7-2,1.8-2.1c1.1-0.1,2.1,0.7,2.2,1.7L21.2,63
			c0.1,1-0.7,2-1.8,2.1C19.3,65.1,19.3,65.1,19.2,65.1z"/>
	</g>
	<g>
		<path class="st1" d="M40.8,65.1c-0.1,0-0.1,0-0.2,0c-1.1-0.1-2-1-1.8-2.1l4.4-41.9c0.1-1,1.1-1.8,2.2-1.7c1.1,0.1,2,1,1.8,2.1
			l-4.4,41.9C42.7,64.4,41.9,65.1,40.8,65.1z"/>
	</g>
	<path class="st0" d="M1.7,6.3C0.8,6.3,0,7,0,7.9v5.7c0,0.9,0.8,1.6,1.7,1.6H30V6.3H1.7z"/>
	<path class="st1" d="M60,13.6V7.9c0-0.9-0.8-1.6-1.7-1.6H30v8.8h28.3C59.2,15.1,60,14.4,60,13.6z"/>
</g>
</svg>
