<?xml version="1.0" encoding="utf-8"?>
<!-- Generator: Adobe Illustrator 19.1.0, SVG Export Plug-In . SVG Version: 6.00 Build 0)  -->
<svg version="1.1" id="Layer_1" xmlns="http://www.w3.org/2000/svg" xmlns:xlink="http://www.w3.org/1999/xlink" x="0px" y="0px"
	 viewBox="0 0 150 31" style="enable-background:new 0 0 150 31;" xml:space="preserve">
<style type="text/css">
	.st0{fill:#414042;}
</style>
<path class="st0" d="M16.6,22.7C16.6,22.7,16.6,22.7,16.6,22.7c0.2,0,0.5-0.1,0.6-0.3l3.2-3.2l0,0l3.2-3.2l0,0l5.6-5.6
	c2.4-2.4,2.4-6.3,0-8.7c-2.4-2.4-6.3-2.4-8.7,0l-12,12c-0.2,0.2-0.3,0.4-0.3,0.6l0.1,6.9l-3.3,3.3c-2.2-2.5-3.4-5.7-3.4-9
	c0-3.6,1.4-7.1,4-9.6c2.6-2.6,6-4,9.6-4c0.5,0,0.9-0.4,0.9-0.9s-0.4-0.9-0.9-0.9c-4.1,0-8,1.6-10.9,4.5C1.6,7.7,0,11.6,0,15.7
	c0,4.1,1.6,8,4.5,10.9c2.9,2.9,6.8,4.5,10.9,4.5s8-1.6,10.9-4.5c2.9-2.9,4.5-6.8,4.5-10.9c0-0.5-0.4-0.9-0.9-0.9
	c-0.5,0-0.9,0.4-0.9,0.9c0,3.6-1.4,7.1-4,9.6s-6,4-9.6,4c-3.4,0-6.5-1.2-9-3.4l3.3-3.3L16.6,22.7z M16.3,21l-4.9-0.1l1.5-1.5
	l4.9,0.1L16.3,21z M16.1,16.1l4.9,0.1l-1.5,1.5l-4.9-0.1L16.1,16.1z M10.1,14.7L21.8,3c1.7-1.7,4.5-1.7,6.2,0
	c0.8,0.8,1.3,1.9,1.3,3.1S28.8,8.4,28,9.2l-5.3,5.3l-4.9-0.1l4.1-4.1c0.3-0.3,0.3-0.9,0-1.2c-0.3-0.3-0.9-0.3-1.2,0L12,17.8l0,0
	l-1.8,1.8L10.1,14.7z"/>
<path class="st0" d="M50.7,6.3v2.1h-9v6.6h7.7V17h-7.7V25h-2.5V6.3H50.7z"/>
<path class="st0" d="M58,11.6c0.8,0,1.5,0.1,2.2,0.4c0.7,0.3,1.3,0.6,1.7,1.2c0.5,0.5,0.9,1.1,1.1,1.9c0.3,0.7,0.4,1.6,0.4,2.5
	c0,0.4,0,0.6-0.1,0.7c-0.1,0.1-0.2,0.2-0.4,0.2h-8.8c0,0.8,0.1,1.6,0.3,2.2c0.2,0.6,0.5,1.1,0.9,1.5c0.4,0.4,0.8,0.7,1.3,0.9
	c0.5,0.2,1.1,0.3,1.7,0.3c0.6,0,1.1-0.1,1.5-0.2c0.4-0.1,0.8-0.3,1.1-0.4c0.3-0.2,0.6-0.3,0.8-0.4s0.4-0.2,0.5-0.2
	c0.2,0,0.3,0.1,0.4,0.2l0.7,0.9c-0.3,0.3-0.6,0.7-1,0.9c-0.4,0.3-0.8,0.5-1.3,0.6c-0.5,0.2-0.9,0.3-1.4,0.4c-0.5,0.1-1,0.1-1.5,0.1
	c-0.9,0-1.8-0.2-2.5-0.5c-0.8-0.3-1.4-0.8-2-1.4c-0.6-0.6-1-1.3-1.3-2.2c-0.3-0.9-0.5-1.9-0.5-3c0-0.9,0.1-1.8,0.4-2.6
	c0.3-0.8,0.7-1.5,1.2-2.1c0.5-0.6,1.2-1.1,1.9-1.4C56.1,11.8,57,11.6,58,11.6z M58,13.3c-1.1,0-2,0.3-2.7,1c-0.6,0.6-1,1.5-1.2,2.7
	h7.2c0-0.5-0.1-1-0.2-1.5c-0.1-0.4-0.4-0.8-0.7-1.2c-0.3-0.3-0.6-0.6-1.1-0.8C59,13.4,58.5,13.3,58,13.3z"/>
<path class="st0" d="M75.7,25c-0.3,0-0.5-0.2-0.6-0.5L74.9,23c-0.6,0.7-1.2,1.2-1.9,1.7c-0.7,0.4-1.6,0.6-2.5,0.6
	c-0.8,0-1.4-0.1-2.1-0.4c-0.6-0.3-1.1-0.7-1.6-1.3c-0.4-0.6-0.8-1.3-1-2.1c-0.2-0.8-0.4-1.8-0.4-2.9c0-1,0.1-1.9,0.4-2.7
	c0.3-0.8,0.6-1.6,1.1-2.2c0.5-0.6,1.1-1.1,1.8-1.5s1.5-0.5,2.4-0.5c0.8,0,1.5,0.1,2.1,0.4c0.6,0.3,1.1,0.7,1.5,1.2V5.8h2.3V25H75.7z
	 M71.2,23.3c0.8,0,1.4-0.2,2-0.5c0.6-0.3,1.1-0.8,1.6-1.5v-6.4c-0.4-0.6-0.9-1-1.4-1.2c-0.5-0.2-1.1-0.3-1.7-0.3
	c-1.2,0-2.2,0.4-2.9,1.3c-0.7,0.9-1,2.1-1,3.8c0,0.9,0.1,1.6,0.2,2.2c0.1,0.6,0.4,1.1,0.7,1.5c0.3,0.4,0.6,0.7,1.1,0.9
	C70.2,23.3,70.7,23.3,71.2,23.3z"/>
<path class="st0" d="M86.3,11.6c0.8,0,1.5,0.1,2.2,0.4c0.7,0.3,1.3,0.6,1.7,1.2c0.5,0.5,0.9,1.1,1.1,1.9c0.3,0.7,0.4,1.6,0.4,2.5
	c0,0.4,0,0.6-0.1,0.7c-0.1,0.1-0.2,0.2-0.4,0.2h-8.8c0,0.8,0.1,1.6,0.3,2.2c0.2,0.6,0.5,1.1,0.9,1.5c0.4,0.4,0.8,0.7,1.3,0.9
	c0.5,0.2,1.1,0.3,1.7,0.3c0.6,0,1.1-0.1,1.5-0.2c0.4-0.1,0.8-0.3,1.1-0.4c0.3-0.2,0.6-0.3,0.8-0.4s0.4-0.2,0.5-0.2
	c0.2,0,0.3,0.1,0.4,0.2l0.7,0.9c-0.3,0.3-0.6,0.7-1,0.9c-0.4,0.3-0.8,0.5-1.3,0.6c-0.5,0.2-0.9,0.3-1.4,0.4c-0.5,0.1-1,0.1-1.5,0.1
	c-0.9,0-1.8-0.2-2.5-0.5c-0.8-0.3-1.4-0.8-2-1.4c-0.6-0.6-1-1.3-1.3-2.2c-0.3-0.9-0.5-1.9-0.5-3c0-0.9,0.1-1.8,0.4-2.6
	c0.3-0.8,0.7-1.5,1.2-2.1c0.5-0.6,1.2-1.1,1.9-1.4C84.5,11.8,85.3,11.6,86.3,11.6z M86.3,13.3c-1.1,0-2,0.3-2.7,1
	c-0.6,0.6-1,1.5-1.2,2.7h7.2c0-0.5-0.1-1-0.2-1.5c-0.1-0.4-0.4-0.8-0.7-1.2c-0.3-0.3-0.6-0.6-1.1-0.8C87.3,13.4,86.9,13.3,86.3,13.3
	z"/>
<path class="st0" d="M94.7,25V11.8h1.3c0.3,0,0.4,0,0.5,0.1c0.1,0.1,0.2,0.3,0.2,0.5l0.2,2.1c0.5-0.9,1-1.6,1.7-2.2
	c0.7-0.5,1.4-0.8,2.3-0.8c0.4,0,0.7,0,1,0.1c0.3,0.1,0.6,0.2,0.8,0.3l-0.3,1.7c-0.1,0.2-0.2,0.3-0.4,0.3c-0.1,0-0.3,0-0.6-0.1
	c-0.3-0.1-0.6-0.1-1.1-0.1c-0.8,0-1.5,0.2-2,0.7c-0.5,0.5-1,1.2-1.4,2.1V25H94.7z"/>
<path class="st0" d="M114.5,25h-1c-0.2,0-0.4,0-0.5-0.1c-0.1-0.1-0.2-0.2-0.3-0.4l-0.3-1.2c-0.3,0.3-0.7,0.6-1,0.8
	c-0.3,0.2-0.7,0.5-1,0.6c-0.4,0.2-0.8,0.3-1.2,0.4c-0.4,0.1-0.9,0.1-1.4,0.1c-0.5,0-1-0.1-1.4-0.2c-0.4-0.1-0.8-0.4-1.2-0.6
	c-0.3-0.3-0.6-0.7-0.8-1.1c-0.2-0.4-0.3-1-0.3-1.6c0-0.5,0.1-1,0.4-1.5c0.3-0.5,0.8-0.9,1.4-1.3c0.6-0.4,1.5-0.7,2.5-0.9
	c1-0.2,2.3-0.4,3.8-0.4v-1c0-1-0.2-1.8-0.7-2.3c-0.4-0.5-1.1-0.8-2-0.8c-0.6,0-1,0.1-1.4,0.2s-0.7,0.3-1,0.5s-0.5,0.3-0.7,0.5
	c-0.2,0.1-0.4,0.2-0.6,0.2c-0.2,0-0.3,0-0.4-0.1c-0.1-0.1-0.2-0.2-0.3-0.3l-0.4-0.7c0.7-0.7,1.5-1.2,2.4-1.6
	c0.8-0.3,1.8-0.5,2.8-0.5c0.7,0,1.4,0.1,2,0.4c0.6,0.2,1.1,0.6,1.5,1c0.4,0.4,0.7,1,0.9,1.6c0.2,0.6,0.3,1.3,0.3,2V25z M108.5,23.6
	c0.4,0,0.8,0,1.1-0.1c0.3-0.1,0.7-0.2,1-0.4c0.3-0.2,0.6-0.3,0.9-0.6c0.3-0.2,0.5-0.5,0.8-0.7v-2.7c-1.1,0-2,0.1-2.7,0.2
	c-0.7,0.1-1.4,0.3-1.8,0.5c-0.5,0.2-0.8,0.5-1,0.8c-0.2,0.3-0.3,0.6-0.3,1c0,0.4,0.1,0.7,0.2,0.9c0.1,0.3,0.3,0.5,0.5,0.6
	c0.2,0.2,0.4,0.3,0.7,0.4C107.9,23.6,108.2,23.6,108.5,23.6z"/>
<path class="st0" d="M120.6,5.8V25h-2.3V5.8H120.6z"/>
<path class="st0" d="M127.8,7.6c0,0.2,0,0.4-0.1,0.6c-0.1,0.2-0.2,0.4-0.4,0.5c-0.2,0.2-0.3,0.3-0.5,0.4s-0.4,0.1-0.6,0.1
	c-0.2,0-0.4,0-0.6-0.1c-0.2-0.1-0.4-0.2-0.5-0.4c-0.2-0.2-0.3-0.3-0.4-0.5c-0.1-0.2-0.1-0.4-0.1-0.6c0-0.2,0-0.4,0.1-0.6
	c0.1-0.2,0.2-0.4,0.4-0.5c0.2-0.2,0.3-0.3,0.5-0.4c0.2-0.1,0.4-0.1,0.6-0.1c0.2,0,0.4,0,0.6,0.1c0.2,0.1,0.4,0.2,0.5,0.4
	c0.2,0.2,0.3,0.3,0.4,0.5C127.8,7.2,127.8,7.4,127.8,7.6z M127.3,11.8V25H125V11.8H127.3z"/>
<path class="st0" d="M139,14c-0.1,0.2-0.3,0.3-0.5,0.3c-0.1,0-0.3,0-0.4-0.1c-0.2-0.1-0.4-0.2-0.6-0.3c-0.2-0.1-0.5-0.2-0.9-0.3
	c-0.3-0.1-0.7-0.2-1.2-0.2c-0.4,0-0.7,0.1-1.1,0.2c-0.3,0.1-0.6,0.2-0.8,0.4c-0.2,0.2-0.4,0.4-0.5,0.6c-0.1,0.2-0.2,0.5-0.2,0.8
	c0,0.3,0.1,0.6,0.3,0.8c0.2,0.2,0.5,0.4,0.8,0.6c0.3,0.2,0.7,0.3,1.1,0.4c0.4,0.1,0.8,0.3,1.3,0.4c0.4,0.1,0.9,0.3,1.3,0.5
	c0.4,0.2,0.8,0.4,1.1,0.7c0.3,0.3,0.6,0.6,0.8,1c0.2,0.4,0.3,0.8,0.3,1.4c0,0.6-0.1,1.2-0.3,1.7c-0.2,0.5-0.5,1-1,1.3
	c-0.4,0.4-1,0.7-1.6,0.9c-0.6,0.2-1.3,0.3-2.1,0.3c-0.9,0-1.8-0.2-2.5-0.5c-0.7-0.3-1.4-0.7-1.9-1.2l0.5-0.9
	c0.1-0.1,0.2-0.2,0.2-0.3c0.1-0.1,0.2-0.1,0.4-0.1c0.2,0,0.3,0.1,0.5,0.2c0.2,0.1,0.4,0.3,0.6,0.4c0.2,0.1,0.5,0.3,0.9,0.4
	c0.4,0.1,0.8,0.2,1.3,0.2c0.5,0,0.9-0.1,1.2-0.2c0.3-0.1,0.6-0.3,0.8-0.5c0.2-0.2,0.4-0.4,0.5-0.7c0.1-0.3,0.2-0.5,0.2-0.8
	c0-0.4-0.1-0.7-0.3-0.9c-0.2-0.2-0.5-0.4-0.8-0.6s-0.7-0.3-1.1-0.4c-0.4-0.1-0.8-0.3-1.3-0.4c-0.4-0.1-0.9-0.3-1.3-0.5
	c-0.4-0.2-0.8-0.4-1.1-0.7s-0.6-0.6-0.8-1c-0.2-0.4-0.3-0.9-0.3-1.4c0-0.5,0.1-1,0.3-1.5c0.2-0.5,0.5-0.9,0.9-1.2s0.9-0.6,1.5-0.8
	c0.6-0.2,1.3-0.3,2-0.3c0.9,0,1.7,0.1,2.3,0.4c0.7,0.3,1.3,0.7,1.8,1.1L139,14z"/>
<path class="st0" d="M146.8,25.3c-1,0-1.9-0.3-2.4-0.9c-0.6-0.6-0.8-1.4-0.8-2.5v-8.1h-1.6c-0.1,0-0.3,0-0.4-0.1
	c-0.1-0.1-0.1-0.2-0.1-0.4v-0.9l2.2-0.3l0.5-4.1c0-0.1,0.1-0.2,0.2-0.3c0.1-0.1,0.2-0.1,0.4-0.1h1.2v4.6h3.8v1.7h-3.8v8
	c0,0.6,0.1,1,0.4,1.2c0.3,0.3,0.6,0.4,1,0.4c0.2,0,0.5,0,0.6-0.1c0.2-0.1,0.3-0.1,0.5-0.2c0.1-0.1,0.2-0.2,0.3-0.2
	c0.1-0.1,0.2-0.1,0.2-0.1c0.1,0,0.2,0.1,0.3,0.2l0.7,1.1c-0.4,0.4-0.9,0.7-1.5,0.9C148,25.1,147.4,25.3,146.8,25.3z"/>
</svg>
