<?xml version="1.0" encoding="utf-8"?>
<!-- Generator: Adobe Illustrator 19.1.0, SVG Export Plug-In . SVG Version: 6.00 Build 0)  -->
<svg version="1.1" id="Layer_1" xmlns="http://www.w3.org/2000/svg" xmlns:xlink="http://www.w3.org/1999/xlink" x="0px" y="0px"
	 viewBox="0 0 36 36" style="enable-background:new 0 0 36 36;" xml:space="preserve">
<style type="text/css">
	.st0{fill:#414042;}
</style>
<g>
	<path class="st0" d="M18,36C8.1,36,0,27.9,0,18S8.1,0,18,0c0.6,0,1,0.4,1,1s-0.4,1-1,1C9.2,2,2,9.2,2,18s7.2,16,16,16s16-7.2,16-16
		c0-0.6,0.4-1,1-1s1,0.4,1,1C36,27.9,27.9,36,18,36z"/>
</g>
<path class="st0" d="M33.9,2.1c-2.7-2.7-7.2-2.7-9.9,0l-14,14c-0.1,0.1-0.2,0.2-0.2,0.3c-0.1,0.1-0.1,0.3-0.1,0.4v8.1l-4.2,4.2
	c-0.4,0.4-0.4,1,0,1.4c0.2,0.2,0.5,0.3,0.7,0.3s0.5-0.1,0.7-0.3l4.2-4.2h8.1c0.3,0,0.6-0.1,0.7-0.3c0,0,0,0,0,0l3.7-3.7c0,0,0,0,0,0
	l10.3-10.3C36.7,9.2,36.7,4.8,33.9,2.1z M11.8,17.2L25.5,3.5c2-1.9,5.1-1.9,7.1,0c1.9,1.9,1.9,5.1,0,7.1l-6.2,6.2h-5.7l4.8-4.8
	c0.4-0.4,0.4-1,0-1.4s-1-0.4-1.4,0L11.8,22.8V17.2z M22.5,20.5h-5.7l1.8-1.8h5.7L22.5,20.5z M18.8,24.3h-5.7l1.8-1.8h5.7L18.8,24.3z
	"/>
</svg>
