<?xml version="1.0" encoding="utf-8"?>
<!-- Generator: Adobe Illustrator 19.1.0, SVG Export Plug-In . SVG Version: 6.00 Build 0)  -->
<svg version="1.1" id="Layer_1" xmlns="http://www.w3.org/2000/svg" xmlns:xlink="http://www.w3.org/1999/xlink" x="0px" y="0px"
	 viewBox="0 0 144 144" style="enable-background:new 0 0 144 144;" xml:space="preserve">
<style type="text/css">
	.st0{fill:none;stroke:#414142;stroke-linecap:round;stroke-linejoin:round;stroke-miterlimit:10;}
	.st1{fill:#414142;stroke:#414142;stroke-linecap:round;stroke-linejoin:round;stroke-miterlimit:10;}
	.st2{fill:none;stroke:#414142;stroke-width:1.25;stroke-linecap:round;stroke-linejoin:round;stroke-miterlimit:10;}
	.st3{fill:none;stroke:#525656;stroke-linecap:round;stroke-linejoin:round;stroke-miterlimit:10;}
	.st4{fill:#414142;}
	.st5{fill:none;stroke:#0D79A6;stroke-linecap:round;stroke-linejoin:round;stroke-miterlimit:10;}
	.st6{fill:#0D79A6;stroke:#0D79A6;stroke-linecap:round;stroke-linejoin:round;stroke-miterlimit:10;}
	.st7{fill:none;stroke:#0D79A6;stroke-width:1.25;stroke-linecap:round;stroke-linejoin:round;stroke-miterlimit:10;}
	.st8{fill:#0D79A6;}
</style>
<rect x="2.5" y="28.5" class="st0" width="19" height="15"/>
<rect x="2.5" y="4.5" class="st0" width="19" height="15"/>
<rect x="2.5" y="76.5" class="st0" width="19" height="15"/>
<polyline class="st0" points="21.5,41.5 17,37.5 12,39.5 7,34.5 2.5,39.5 "/>
<circle class="st0" cx="14.5" cy="33.5" r="2"/>
<line class="st0" x1="21.5" y1="65.5" x2="16.5" y2="65.5"/>
<line class="st0" x1="12.5" y1="65.5" x2="2.5" y2="65.5"/>
<line class="st0" x1="21.5" y1="59.5" x2="9.5" y2="59.5"/>
<line class="st0" x1="21.5" y1="53.5" x2="19.5" y2="53.5"/>
<line class="st0" x1="2.5" y1="53.5" x2="15.5" y2="53.5"/>
<line class="st0" x1="5.5" y1="14.5" x2="18.5" y2="14.5"/>
<line class="st0" x1="5.5" y1="16.5" x2="14.5" y2="16.5"/>
<line class="st0" x1="2.5" y1="59.5" x2="5.5" y2="59.5"/>
<circle class="st0" cx="14.5" cy="65.5" r="2"/>
<circle class="st0" cx="17.5" cy="53.5" r="2"/>
<circle class="st0" cx="7.5" cy="59.5" r="2"/>
<line class="st0" x1="5.5" y1="79.5" x2="18.5" y2="79.5"/>
<line class="st0" x1="5.5" y1="82.5" x2="15.5" y2="82.5"/>
<line class="st0" x1="5.5" y1="85.5" x2="18.5" y2="85.5"/>
<line class="st0" x1="5.5" y1="88.5" x2="15.5" y2="88.5"/>
<polyline class="st0" points="56.5,41.5 56.5,44.5 67.5,44.5 67.5,30.5 63.5,30.5 "/>
<rect x="52.5" y="27.5" class="st0" width="11" height="14"/>
<polyline class="st0" points="56.5,65.5 56.5,68.5 67.5,68.5 67.5,54.5 63.5,54.5 "/>
<rect x="52.5" y="51.5" class="st1" width="11" height="14"/>
<circle class="st0" cx="60" cy="84" r="8.5"/>
<circle class="st0" cx="60" cy="108" r="8.5"/>
<polyline class="st0" points="55.5,108.5 58.5,111.5 64.5,105.5 "/>
<path class="st0" d="M21.5,108c0,0-4.3,4.5-9.5,4.5S2.5,108,2.5,108s4.3-4.5,9.5-4.5S21.5,108,21.5,108z"/>
<circle class="st2" cx="12" cy="108" r="2.5"/>
<polyline class="st0" points="43.5,134.5 43.5,139.5 28.5,139.5 28.5,124.5 33.5,124.5 "/>
<polyline class="st0" points="43.5,129.5 43.5,124.5 38.5,124.5 "/>
<line class="st0" x1="43.5" y1="124.5" x2="32.5" y2="135.5"/>
<polyline class="st3" points="5.5,135.5 10.5,130.5 15.5,132.5 19.5,126.5 "/>
<polyline class="st3" points="21.5,139.5 2.5,139.5 2.5,124.5 "/>
<line class="st0" x1="28.5" y1="11.5" x2="42.5" y2="11.5"/>
<line class="st0" x1="35.5" y1="4.5" x2="35.5" y2="18.5"/>
<polygon class="st0" points="42.5,92.5 29.5,92.5 29.5,75.5 38.5,75.5 42.5,79.5 "/>
<polyline class="st0" points="42.5,79.5 38.5,79.5 38.5,75.5 "/>
<line class="st0" x1="32.5" y1="82.5" x2="39.5" y2="82.5"/>
<line class="st0" x1="32.5" y1="79.5" x2="35.5" y2="79.5"/>
<line class="st0" x1="32.5" y1="85.5" x2="39.5" y2="85.5"/>
<line class="st0" x1="32.5" y1="88.5" x2="39.5" y2="88.5"/>
<line class="st0" x1="42.5" y1="116.5" x2="29.5" y2="116.5"/>
<polyline class="st0" points="29.5,99.5 38.5,99.5 42.5,103.5 "/>
<polyline class="st0" points="42.5,103.5 38.5,103.5 38.5,99.5 "/>
<line class="st0" x1="32.5" y1="106.5" x2="39.5" y2="106.5"/>
<line class="st0" x1="32.5" y1="103.5" x2="35.5" y2="103.5"/>
<line class="st0" x1="32.5" y1="109.5" x2="39.5" y2="109.5"/>
<line class="st0" x1="32.5" y1="112.5" x2="39.5" y2="112.5"/>
<line class="st0" x1="29.5" y1="53.5" x2="42.5" y2="66.5"/>
<line class="st0" x1="42.5" y1="53.5" x2="29.5" y2="66.5"/>
<circle class="st2" cx="36" cy="36" r="2.5"/>
<polygon class="st0" points="34,43 34.5,45.5 37.5,45.5 38,43 39.5,42.4 41.7,43.8 43.8,41.7 42.4,39.5 43,38 45.5,37.5 45.5,34.5 
	43,34 42.4,32.5 43.8,30.3 41.7,28.2 39.5,29.6 38,29 37.5,26.5 34.5,26.5 34,29 32.5,29.6 30.3,28.2 28.2,30.3 29.6,32.5 29,34 
	26.5,34.5 26.5,37.5 29,38 29.6,39.5 28.2,41.7 30.3,43.8 32.5,42.4 "/>
<polyline class="st0" points="64.2,18.5 68.5,18.5 68.5,4.5 50.5,4.5 50.5,18.5 54.8,18.5 "/>
<polyline class="st0" points="62.5,13.5 59.5,10.5 56.5,13.5 "/>
<line class="st0" x1="59.5" y1="10.5" x2="59.5" y2="20.5"/>
<line class="st0" x1="50.5" y1="8.5" x2="68.5" y2="8.5"/>
<circle class="st4" cx="52.5" cy="6.5" r="0.6"/>
<circle class="st4" cx="54.5" cy="6.5" r="0.6"/>
<line class="st2" x1="29.5" y1="109.5" x2="29.5" y2="109.5"/>
<line class="st2" x1="29.5" y1="112.5" x2="29.5" y2="112.5"/>
<line class="st2" x1="29.5" y1="106.5" x2="29.5" y2="106.5"/>
<line class="st2" x1="42.5" y1="109.5" x2="42.5" y2="109.5"/>
<line class="st2" x1="42.5" y1="112.5" x2="42.5" y2="112.5"/>
<line class="st2" x1="42.5" y1="106.5" x2="42.5" y2="106.5"/>
<line class="st2" x1="29.5" y1="103.5" x2="29.5" y2="103.5"/>
<rect x="74.5" y="28.5" class="st5" width="19" height="15"/>
<rect x="74.5" y="76.5" class="st5" width="19" height="15"/>
<polyline class="st5" points="93.5,41.5 89,37.5 84,39.5 79,34.5 74.5,39.5 "/>
<circle class="st5" cx="86.5" cy="33.5" r="2"/>
<line class="st5" x1="93.5" y1="65.5" x2="88.5" y2="65.5"/>
<line class="st5" x1="84.5" y1="65.5" x2="74.5" y2="65.5"/>
<line class="st5" x1="93.5" y1="59.5" x2="81.5" y2="59.5"/>
<line class="st5" x1="93.5" y1="53.5" x2="91.5" y2="53.5"/>
<line class="st5" x1="74.5" y1="53.5" x2="87.5" y2="53.5"/>
<line class="st5" x1="74.5" y1="59.5" x2="77.5" y2="59.5"/>
<circle class="st5" cx="86.5" cy="65.5" r="2"/>
<circle class="st5" cx="89.5" cy="53.5" r="2"/>
<circle class="st5" cx="79.5" cy="59.5" r="2"/>
<line class="st5" x1="77.5" y1="79.5" x2="90.5" y2="79.5"/>
<line class="st5" x1="77.5" y1="82.5" x2="87.5" y2="82.5"/>
<line class="st5" x1="77.5" y1="85.5" x2="90.5" y2="85.5"/>
<line class="st5" x1="77.5" y1="88.5" x2="87.5" y2="88.5"/>
<polyline class="st5" points="128.5,41.5 128.5,44.5 139.5,44.5 139.5,30.5 135.5,30.5 "/>
<rect x="124.5" y="27.5" class="st5" width="11" height="14"/>
<polyline class="st5" points="128.5,65.5 128.5,68.5 139.5,68.5 139.5,54.5 135.5,54.5 "/>
<rect x="124.5" y="51.5" class="st6" width="11" height="14"/>
<circle class="st5" cx="132" cy="84" r="8.5"/>
<circle class="st5" cx="132" cy="108" r="8.5"/>
<polyline class="st5" points="127.5,108.5 130.5,111.5 136.5,105.5 "/>
<path class="st5" d="M93.5,108c0,0-4.3,4.5-9.5,4.5s-9.5-4.5-9.5-4.5s4.3-4.5,9.5-4.5S93.5,108,93.5,108z"/>
<circle class="st7" cx="84" cy="108" r="2.5"/>
<polyline class="st5" points="115.5,134.5 115.5,139.5 100.5,139.5 100.5,124.5 105.5,124.5 "/>
<polyline class="st5" points="115.5,129.5 115.5,124.5 110.5,124.5 "/>
<line class="st5" x1="115.5" y1="124.5" x2="104.5" y2="135.5"/>
<polyline class="st5" points="77.5,135.5 82.5,130.5 87.5,132.5 91.5,126.5 "/>
<polyline class="st5" points="93.5,139.5 74.5,139.5 74.5,124.5 "/>
<line class="st5" x1="100.5" y1="11.5" x2="114.5" y2="11.5"/>
<line class="st5" x1="107.5" y1="4.5" x2="107.5" y2="18.5"/>
<polygon class="st5" points="114.5,92.5 101.5,92.5 101.5,75.5 110.5,75.5 114.5,79.5 "/>
<polyline class="st5" points="114.5,79.5 110.5,79.5 110.5,75.5 "/>
<line class="st5" x1="104.5" y1="82.5" x2="111.5" y2="82.5"/>
<line class="st5" x1="104.5" y1="79.5" x2="107.5" y2="79.5"/>
<line class="st5" x1="104.5" y1="85.5" x2="111.5" y2="85.5"/>
<line class="st5" x1="104.5" y1="88.5" x2="111.5" y2="88.5"/>
<line class="st5" x1="114.5" y1="116.5" x2="101.5" y2="116.5"/>
<polyline class="st5" points="101.5,99.5 110.5,99.5 114.5,103.5 "/>
<polyline class="st5" points="114.5,103.5 110.5,103.5 110.5,99.5 "/>
<line class="st5" x1="104.5" y1="106.5" x2="111.5" y2="106.5"/>
<line class="st5" x1="104.5" y1="103.5" x2="107.5" y2="103.5"/>
<line class="st5" x1="104.5" y1="109.5" x2="111.5" y2="109.5"/>
<line class="st5" x1="104.5" y1="112.5" x2="111.5" y2="112.5"/>
<line class="st5" x1="101.5" y1="53.5" x2="114.5" y2="66.5"/>
<line class="st5" x1="114.5" y1="53.5" x2="101.5" y2="66.5"/>
<circle class="st7" cx="108" cy="36" r="2.5"/>
<polygon class="st5" points="106,43 106.5,45.5 109.5,45.5 110,43 111.5,42.4 113.7,43.8 115.8,41.7 114.4,39.5 115,38 117.5,37.5 
	117.5,34.5 115,34 114.4,32.5 115.8,30.3 113.7,28.2 111.5,29.6 110,29 109.5,26.5 106.5,26.5 106,29 104.5,29.6 102.3,28.2 
	100.2,30.3 101.6,32.5 101,34 98.5,34.5 98.5,37.5 101,38 101.6,39.5 100.2,41.7 102.3,43.8 104.5,42.4 "/>
<polyline class="st5" points="136.2,18.5 140.5,18.5 140.5,4.5 122.5,4.5 122.5,18.5 126.8,18.5 "/>
<polyline class="st5" points="134.5,13.5 131.5,10.5 128.5,13.5 "/>
<line class="st5" x1="131.5" y1="10.5" x2="131.5" y2="20.5"/>
<line class="st5" x1="122.5" y1="8.5" x2="140.5" y2="8.5"/>
<circle class="st8" cx="124.5" cy="6.5" r="0.6"/>
<circle class="st8" cx="126.5" cy="6.5" r="0.6"/>
<line class="st7" x1="101.5" y1="109.5" x2="101.5" y2="109.5"/>
<line class="st7" x1="101.5" y1="112.5" x2="101.5" y2="112.5"/>
<line class="st7" x1="101.5" y1="106.5" x2="101.5" y2="106.5"/>
<line class="st7" x1="114.5" y1="109.5" x2="114.5" y2="109.5"/>
<line class="st7" x1="114.5" y1="112.5" x2="114.5" y2="112.5"/>
<line class="st7" x1="114.5" y1="106.5" x2="114.5" y2="106.5"/>
<line class="st7" x1="101.5" y1="103.5" x2="101.5" y2="103.5"/>
<rect x="5.5" y="7.5" class="st0" width="13" height="4"/>
<rect x="74.5" y="4.5" class="st5" width="19" height="15"/>
<line class="st5" x1="77.5" y1="14.5" x2="90.5" y2="14.5"/>
<line class="st5" x1="77.5" y1="16.5" x2="86.5" y2="16.5"/>
<rect x="77.5" y="7.5" class="st5" width="13" height="4"/>
</svg>
